<mxfile host="app.diagrams.net" modified="2023-11-14T12:43:16.424Z" agent="Mozilla/5.0 (Windows NT 10.0; Win64; x64) AppleWebKit/537.36 (KHTML, like Gecko) Chrome/119.0.0.0 Safari/537.36 Edg/119.0.0.0" etag="X4XJQ6Xem1G44liREOPj" version="22.1.0" type="github">
  <diagram name="第 1 页" id="jVnID7ULhWDqt6ieccE7">
    <mxGraphModel dx="473" dy="526" grid="1" gridSize="10" guides="1" tooltips="1" connect="1" arrows="1" fold="1" page="1" pageScale="1" pageWidth="827" pageHeight="1169" math="0" shadow="0">
      <root>
        <mxCell id="0" />
        <mxCell id="1" parent="0" />
        <mxCell id="Bbe2E0BqDr3qgG-HRDM4-2" value="用户" style="whiteSpace=wrap;html=1;align=center;" vertex="1" parent="1">
          <mxGeometry x="210" y="710" width="100" height="40" as="geometry" />
        </mxCell>
        <mxCell id="Bbe2E0BqDr3qgG-HRDM4-14" style="edgeStyle=none;rounded=0;orthogonalLoop=1;jettySize=auto;html=1;exitX=0.5;exitY=1;exitDx=0;exitDy=0;entryX=0.5;entryY=0;entryDx=0;entryDy=0;endArrow=none;endFill=0;" edge="1" parent="1" source="Bbe2E0BqDr3qgG-HRDM4-3" target="Bbe2E0BqDr3qgG-HRDM4-2">
          <mxGeometry relative="1" as="geometry" />
        </mxCell>
        <mxCell id="Bbe2E0BqDr3qgG-HRDM4-3" value="用户编号" style="ellipse;whiteSpace=wrap;html=1;align=center;" vertex="1" parent="1">
          <mxGeometry x="100" y="630" width="100" height="40" as="geometry" />
        </mxCell>
        <mxCell id="Bbe2E0BqDr3qgG-HRDM4-13" style="edgeStyle=none;rounded=0;orthogonalLoop=1;jettySize=auto;html=1;exitX=0.5;exitY=1;exitDx=0;exitDy=0;endArrow=none;endFill=0;" edge="1" parent="1" source="Bbe2E0BqDr3qgG-HRDM4-4" target="Bbe2E0BqDr3qgG-HRDM4-2">
          <mxGeometry relative="1" as="geometry" />
        </mxCell>
        <mxCell id="Bbe2E0BqDr3qgG-HRDM4-4" value="用户名" style="ellipse;whiteSpace=wrap;html=1;align=center;" vertex="1" parent="1">
          <mxGeometry x="240" y="630" width="100" height="40" as="geometry" />
        </mxCell>
        <mxCell id="Bbe2E0BqDr3qgG-HRDM4-15" style="edgeStyle=none;rounded=0;orthogonalLoop=1;jettySize=auto;html=1;exitX=1;exitY=0.5;exitDx=0;exitDy=0;endArrow=none;endFill=0;" edge="1" parent="1" source="Bbe2E0BqDr3qgG-HRDM4-6" target="Bbe2E0BqDr3qgG-HRDM4-2">
          <mxGeometry relative="1" as="geometry" />
        </mxCell>
        <mxCell id="Bbe2E0BqDr3qgG-HRDM4-6" value="密码" style="ellipse;whiteSpace=wrap;html=1;align=center;" vertex="1" parent="1">
          <mxGeometry x="60" y="700" width="100" height="40" as="geometry" />
        </mxCell>
        <mxCell id="Bbe2E0BqDr3qgG-HRDM4-16" style="edgeStyle=none;rounded=0;orthogonalLoop=1;jettySize=auto;html=1;exitX=1;exitY=0.5;exitDx=0;exitDy=0;entryX=0.25;entryY=1;entryDx=0;entryDy=0;endArrow=none;endFill=0;" edge="1" parent="1" source="Bbe2E0BqDr3qgG-HRDM4-7" target="Bbe2E0BqDr3qgG-HRDM4-2">
          <mxGeometry relative="1" as="geometry" />
        </mxCell>
        <mxCell id="Bbe2E0BqDr3qgG-HRDM4-7" value="昵称" style="ellipse;whiteSpace=wrap;html=1;align=center;" vertex="1" parent="1">
          <mxGeometry x="70" y="760" width="100" height="40" as="geometry" />
        </mxCell>
        <mxCell id="Bbe2E0BqDr3qgG-HRDM4-8" value="性别" style="ellipse;whiteSpace=wrap;html=1;align=center;" vertex="1" parent="1">
          <mxGeometry x="190" y="780" width="100" height="40" as="geometry" />
        </mxCell>
        <mxCell id="Bbe2E0BqDr3qgG-HRDM4-18" style="edgeStyle=none;rounded=0;orthogonalLoop=1;jettySize=auto;html=1;exitX=0.5;exitY=0;exitDx=0;exitDy=0;entryX=0.5;entryY=1;entryDx=0;entryDy=0;endArrow=none;endFill=0;" edge="1" parent="1" source="Bbe2E0BqDr3qgG-HRDM4-9" target="Bbe2E0BqDr3qgG-HRDM4-2">
          <mxGeometry relative="1" as="geometry" />
        </mxCell>
        <mxCell id="Bbe2E0BqDr3qgG-HRDM4-9" value="电话" style="ellipse;whiteSpace=wrap;html=1;align=center;" vertex="1" parent="1">
          <mxGeometry x="300" y="790" width="100" height="40" as="geometry" />
        </mxCell>
        <mxCell id="Bbe2E0BqDr3qgG-HRDM4-19" style="edgeStyle=none;rounded=0;orthogonalLoop=1;jettySize=auto;html=1;exitX=0;exitY=0.5;exitDx=0;exitDy=0;entryX=1;entryY=0.5;entryDx=0;entryDy=0;endArrow=none;endFill=0;" edge="1" parent="1" source="Bbe2E0BqDr3qgG-HRDM4-10" target="Bbe2E0BqDr3qgG-HRDM4-2">
          <mxGeometry relative="1" as="geometry" />
        </mxCell>
        <mxCell id="Bbe2E0BqDr3qgG-HRDM4-10" value="地址" style="ellipse;whiteSpace=wrap;html=1;align=center;" vertex="1" parent="1">
          <mxGeometry x="350" y="710" width="100" height="40" as="geometry" />
        </mxCell>
        <mxCell id="Bbe2E0BqDr3qgG-HRDM4-21" style="edgeStyle=none;rounded=0;orthogonalLoop=1;jettySize=auto;html=1;exitX=0.5;exitY=1;exitDx=0;exitDy=0;endArrow=none;endFill=0;" edge="1" parent="1" source="Bbe2E0BqDr3qgG-HRDM4-11" target="Bbe2E0BqDr3qgG-HRDM4-2">
          <mxGeometry relative="1" as="geometry" />
        </mxCell>
        <mxCell id="Bbe2E0BqDr3qgG-HRDM4-11" value="角色" style="ellipse;whiteSpace=wrap;html=1;align=center;" vertex="1" parent="1">
          <mxGeometry x="364" y="640" width="100" height="40" as="geometry" />
        </mxCell>
        <mxCell id="Bbe2E0BqDr3qgG-HRDM4-17" style="edgeStyle=none;rounded=0;orthogonalLoop=1;jettySize=auto;html=1;exitX=0.5;exitY=0;exitDx=0;exitDy=0;entryX=0.378;entryY=1.023;entryDx=0;entryDy=0;entryPerimeter=0;endArrow=none;endFill=0;" edge="1" parent="1" source="Bbe2E0BqDr3qgG-HRDM4-8" target="Bbe2E0BqDr3qgG-HRDM4-2">
          <mxGeometry relative="1" as="geometry">
            <Array as="points">
              <mxPoint x="250" y="751" />
            </Array>
          </mxGeometry>
        </mxCell>
        <mxCell id="Bbe2E0BqDr3qgG-HRDM4-33" value="" style="edgeStyle=none;shape=connector;rounded=0;orthogonalLoop=1;jettySize=auto;html=1;labelBackgroundColor=default;strokeColor=default;align=center;verticalAlign=middle;fontFamily=Helvetica;fontSize=11;fontColor=default;endArrow=none;endFill=0;" edge="1" parent="1" source="Bbe2E0BqDr3qgG-HRDM4-22" target="Bbe2E0BqDr3qgG-HRDM4-25">
          <mxGeometry relative="1" as="geometry" />
        </mxCell>
        <mxCell id="Bbe2E0BqDr3qgG-HRDM4-37" style="edgeStyle=none;shape=connector;rounded=0;orthogonalLoop=1;jettySize=auto;html=1;exitX=0.5;exitY=1;exitDx=0;exitDy=0;labelBackgroundColor=default;strokeColor=default;align=center;verticalAlign=middle;fontFamily=Helvetica;fontSize=11;fontColor=default;endArrow=none;endFill=0;" edge="1" parent="1" source="Bbe2E0BqDr3qgG-HRDM4-22" target="Bbe2E0BqDr3qgG-HRDM4-31">
          <mxGeometry relative="1" as="geometry" />
        </mxCell>
        <mxCell id="Bbe2E0BqDr3qgG-HRDM4-22" value="图书" style="whiteSpace=wrap;html=1;align=center;fontFamily=Helvetica;fontSize=11;fontColor=default;" vertex="1" parent="1">
          <mxGeometry x="160" y="1090" width="100" height="40" as="geometry" />
        </mxCell>
        <mxCell id="Bbe2E0BqDr3qgG-HRDM4-32" value="" style="edgeStyle=none;shape=connector;rounded=0;orthogonalLoop=1;jettySize=auto;html=1;labelBackgroundColor=default;strokeColor=default;align=center;verticalAlign=middle;fontFamily=Helvetica;fontSize=11;fontColor=default;endArrow=none;endFill=0;" edge="1" parent="1" source="Bbe2E0BqDr3qgG-HRDM4-23" target="Bbe2E0BqDr3qgG-HRDM4-22">
          <mxGeometry relative="1" as="geometry" />
        </mxCell>
        <mxCell id="Bbe2E0BqDr3qgG-HRDM4-23" value="图书编号" style="ellipse;whiteSpace=wrap;html=1;align=center;fontFamily=Helvetica;fontSize=11;fontColor=default;" vertex="1" parent="1">
          <mxGeometry x="30" y="1050" width="100" height="40" as="geometry" />
        </mxCell>
        <mxCell id="Bbe2E0BqDr3qgG-HRDM4-24" value="isbn" style="ellipse;whiteSpace=wrap;html=1;align=center;fontFamily=Helvetica;fontSize=11;fontColor=default;" vertex="1" parent="1">
          <mxGeometry x="100" y="990" width="100" height="40" as="geometry" />
        </mxCell>
        <mxCell id="Bbe2E0BqDr3qgG-HRDM4-25" value="书名" style="ellipse;whiteSpace=wrap;html=1;align=center;fontFamily=Helvetica;fontSize=11;fontColor=default;" vertex="1" parent="1">
          <mxGeometry x="230" y="970" width="100" height="40" as="geometry" />
        </mxCell>
        <mxCell id="Bbe2E0BqDr3qgG-HRDM4-41" style="edgeStyle=none;shape=connector;rounded=0;orthogonalLoop=1;jettySize=auto;html=1;exitX=0.5;exitY=1;exitDx=0;exitDy=0;labelBackgroundColor=default;strokeColor=default;align=center;verticalAlign=middle;fontFamily=Helvetica;fontSize=11;fontColor=default;endArrow=none;endFill=0;" edge="1" parent="1" source="Bbe2E0BqDr3qgG-HRDM4-26" target="Bbe2E0BqDr3qgG-HRDM4-22">
          <mxGeometry relative="1" as="geometry" />
        </mxCell>
        <mxCell id="Bbe2E0BqDr3qgG-HRDM4-26" value="价格" style="ellipse;whiteSpace=wrap;html=1;align=center;fontFamily=Helvetica;fontSize=11;fontColor=default;" vertex="1" parent="1">
          <mxGeometry x="350" y="1030" width="100" height="40" as="geometry" />
        </mxCell>
        <mxCell id="Bbe2E0BqDr3qgG-HRDM4-27" value="作者" style="ellipse;whiteSpace=wrap;html=1;align=center;fontFamily=Helvetica;fontSize=11;fontColor=default;" vertex="1" parent="1">
          <mxGeometry x="340" y="1090" width="100" height="40" as="geometry" />
        </mxCell>
        <mxCell id="Bbe2E0BqDr3qgG-HRDM4-39" style="edgeStyle=none;shape=connector;rounded=0;orthogonalLoop=1;jettySize=auto;html=1;exitX=0.5;exitY=0;exitDx=0;exitDy=0;entryX=0.5;entryY=1;entryDx=0;entryDy=0;labelBackgroundColor=default;strokeColor=default;align=center;verticalAlign=middle;fontFamily=Helvetica;fontSize=11;fontColor=default;endArrow=none;endFill=0;" edge="1" parent="1" source="Bbe2E0BqDr3qgG-HRDM4-28" target="Bbe2E0BqDr3qgG-HRDM4-22">
          <mxGeometry relative="1" as="geometry" />
        </mxCell>
        <mxCell id="Bbe2E0BqDr3qgG-HRDM4-28" value="出版社" style="ellipse;whiteSpace=wrap;html=1;align=center;fontFamily=Helvetica;fontSize=11;fontColor=default;" vertex="1" parent="1">
          <mxGeometry x="300" y="1160" width="100" height="40" as="geometry" />
        </mxCell>
        <mxCell id="Bbe2E0BqDr3qgG-HRDM4-29" value="出版时间" style="ellipse;whiteSpace=wrap;html=1;align=center;fontFamily=Helvetica;fontSize=11;fontColor=default;" vertex="1" parent="1">
          <mxGeometry x="180" y="1190" width="100" height="40" as="geometry" />
        </mxCell>
        <mxCell id="Bbe2E0BqDr3qgG-HRDM4-36" value="" style="edgeStyle=none;shape=connector;rounded=0;orthogonalLoop=1;jettySize=auto;html=1;labelBackgroundColor=default;strokeColor=default;align=center;verticalAlign=middle;fontFamily=Helvetica;fontSize=11;fontColor=default;endArrow=none;endFill=0;" edge="1" parent="1" source="Bbe2E0BqDr3qgG-HRDM4-30" target="Bbe2E0BqDr3qgG-HRDM4-22">
          <mxGeometry relative="1" as="geometry" />
        </mxCell>
        <mxCell id="Bbe2E0BqDr3qgG-HRDM4-30" value="状态" style="ellipse;whiteSpace=wrap;html=1;align=center;fontFamily=Helvetica;fontSize=11;fontColor=default;" vertex="1" parent="1">
          <mxGeometry x="40" y="1130" width="100" height="40" as="geometry" />
        </mxCell>
        <mxCell id="Bbe2E0BqDr3qgG-HRDM4-31" value="借出的量" style="ellipse;whiteSpace=wrap;html=1;align=center;fontFamily=Helvetica;fontSize=11;fontColor=default;" vertex="1" parent="1">
          <mxGeometry x="50" y="1190" width="100" height="40" as="geometry" />
        </mxCell>
        <mxCell id="Bbe2E0BqDr3qgG-HRDM4-35" style="edgeStyle=none;shape=connector;rounded=0;orthogonalLoop=1;jettySize=auto;html=1;entryX=0.4;entryY=0;entryDx=0;entryDy=0;entryPerimeter=0;labelBackgroundColor=default;strokeColor=default;align=center;verticalAlign=middle;fontFamily=Helvetica;fontSize=11;fontColor=default;endArrow=none;endFill=0;" edge="1" parent="1" source="Bbe2E0BqDr3qgG-HRDM4-24" target="Bbe2E0BqDr3qgG-HRDM4-22">
          <mxGeometry relative="1" as="geometry" />
        </mxCell>
        <mxCell id="Bbe2E0BqDr3qgG-HRDM4-38" style="edgeStyle=none;shape=connector;rounded=0;orthogonalLoop=1;jettySize=auto;html=1;exitX=0.5;exitY=0;exitDx=0;exitDy=0;entryX=0.438;entryY=0.964;entryDx=0;entryDy=0;entryPerimeter=0;labelBackgroundColor=default;strokeColor=default;align=center;verticalAlign=middle;fontFamily=Helvetica;fontSize=11;fontColor=default;endArrow=none;endFill=0;" edge="1" parent="1" source="Bbe2E0BqDr3qgG-HRDM4-29" target="Bbe2E0BqDr3qgG-HRDM4-22">
          <mxGeometry relative="1" as="geometry" />
        </mxCell>
        <mxCell id="Bbe2E0BqDr3qgG-HRDM4-40" style="edgeStyle=none;shape=connector;rounded=0;orthogonalLoop=1;jettySize=auto;html=1;exitX=0.5;exitY=1;exitDx=0;exitDy=0;entryX=0.598;entryY=1.044;entryDx=0;entryDy=0;entryPerimeter=0;labelBackgroundColor=default;strokeColor=default;align=center;verticalAlign=middle;fontFamily=Helvetica;fontSize=11;fontColor=default;endArrow=none;endFill=0;" edge="1" parent="1" source="Bbe2E0BqDr3qgG-HRDM4-27" target="Bbe2E0BqDr3qgG-HRDM4-22">
          <mxGeometry relative="1" as="geometry" />
        </mxCell>
        <mxCell id="Bbe2E0BqDr3qgG-HRDM4-56" value="" style="edgeStyle=none;shape=connector;rounded=0;orthogonalLoop=1;jettySize=auto;html=1;labelBackgroundColor=default;strokeColor=default;align=center;verticalAlign=middle;fontFamily=Helvetica;fontSize=11;fontColor=default;endArrow=none;endFill=0;" edge="1" source="Bbe2E0BqDr3qgG-HRDM4-58" target="Bbe2E0BqDr3qgG-HRDM4-62" parent="1">
          <mxGeometry relative="1" as="geometry" />
        </mxCell>
        <mxCell id="Bbe2E0BqDr3qgG-HRDM4-58" value="用户图书" style="whiteSpace=wrap;html=1;align=center;fontFamily=Helvetica;fontSize=11;fontColor=default;" vertex="1" parent="1">
          <mxGeometry x="210" y="1450" width="100" height="40" as="geometry" />
        </mxCell>
        <mxCell id="Bbe2E0BqDr3qgG-HRDM4-59" value="" style="edgeStyle=none;shape=connector;rounded=0;orthogonalLoop=1;jettySize=auto;html=1;labelBackgroundColor=default;strokeColor=default;align=center;verticalAlign=middle;fontFamily=Helvetica;fontSize=11;fontColor=default;endArrow=none;endFill=0;" edge="1" source="Bbe2E0BqDr3qgG-HRDM4-60" target="Bbe2E0BqDr3qgG-HRDM4-58" parent="1">
          <mxGeometry relative="1" as="geometry" />
        </mxCell>
        <mxCell id="Bbe2E0BqDr3qgG-HRDM4-60" value="图书编号" style="ellipse;whiteSpace=wrap;html=1;align=center;fontFamily=Helvetica;fontSize=11;fontColor=default;" vertex="1" parent="1">
          <mxGeometry x="80" y="1410" width="100" height="40" as="geometry" />
        </mxCell>
        <mxCell id="Bbe2E0BqDr3qgG-HRDM4-61" value="图书编号" style="ellipse;whiteSpace=wrap;html=1;align=center;fontFamily=Helvetica;fontSize=11;fontColor=default;" vertex="1" parent="1">
          <mxGeometry x="150" y="1350" width="100" height="40" as="geometry" />
        </mxCell>
        <mxCell id="Bbe2E0BqDr3qgG-HRDM4-62" value="isbn" style="ellipse;whiteSpace=wrap;html=1;align=center;fontFamily=Helvetica;fontSize=11;fontColor=default;" vertex="1" parent="1">
          <mxGeometry x="280" y="1330" width="100" height="40" as="geometry" />
        </mxCell>
        <mxCell id="Bbe2E0BqDr3qgG-HRDM4-63" style="edgeStyle=none;shape=connector;rounded=0;orthogonalLoop=1;jettySize=auto;html=1;exitX=0.5;exitY=1;exitDx=0;exitDy=0;labelBackgroundColor=default;strokeColor=default;align=center;verticalAlign=middle;fontFamily=Helvetica;fontSize=11;fontColor=default;endArrow=none;endFill=0;" edge="1" source="Bbe2E0BqDr3qgG-HRDM4-64" target="Bbe2E0BqDr3qgG-HRDM4-58" parent="1">
          <mxGeometry relative="1" as="geometry" />
        </mxCell>
        <mxCell id="Bbe2E0BqDr3qgG-HRDM4-64" value="书名" style="ellipse;whiteSpace=wrap;html=1;align=center;fontFamily=Helvetica;fontSize=11;fontColor=default;" vertex="1" parent="1">
          <mxGeometry x="400" y="1390" width="100" height="40" as="geometry" />
        </mxCell>
        <mxCell id="Bbe2E0BqDr3qgG-HRDM4-65" value="借出的时间" style="ellipse;whiteSpace=wrap;html=1;align=center;fontFamily=Helvetica;fontSize=11;fontColor=default;" vertex="1" parent="1">
          <mxGeometry x="390" y="1450" width="100" height="40" as="geometry" />
        </mxCell>
        <mxCell id="Bbe2E0BqDr3qgG-HRDM4-66" style="edgeStyle=none;shape=connector;rounded=0;orthogonalLoop=1;jettySize=auto;html=1;exitX=0.5;exitY=0;exitDx=0;exitDy=0;entryX=0.5;entryY=1;entryDx=0;entryDy=0;labelBackgroundColor=default;strokeColor=default;align=center;verticalAlign=middle;fontFamily=Helvetica;fontSize=11;fontColor=default;endArrow=none;endFill=0;" edge="1" source="Bbe2E0BqDr3qgG-HRDM4-67" target="Bbe2E0BqDr3qgG-HRDM4-58" parent="1">
          <mxGeometry relative="1" as="geometry" />
        </mxCell>
        <mxCell id="Bbe2E0BqDr3qgG-HRDM4-67" value="截至的时间" style="ellipse;whiteSpace=wrap;html=1;align=center;fontFamily=Helvetica;fontSize=11;fontColor=default;" vertex="1" parent="1">
          <mxGeometry x="300" y="1520" width="100" height="40" as="geometry" />
        </mxCell>
        <mxCell id="Bbe2E0BqDr3qgG-HRDM4-68" value="延长" style="ellipse;whiteSpace=wrap;html=1;align=center;fontFamily=Helvetica;fontSize=11;fontColor=default;" vertex="1" parent="1">
          <mxGeometry x="80" y="1520" width="100" height="40" as="geometry" />
        </mxCell>
        <mxCell id="Bbe2E0BqDr3qgG-HRDM4-72" style="edgeStyle=none;shape=connector;rounded=0;orthogonalLoop=1;jettySize=auto;html=1;entryX=0.4;entryY=0;entryDx=0;entryDy=0;entryPerimeter=0;labelBackgroundColor=default;strokeColor=default;align=center;verticalAlign=middle;fontFamily=Helvetica;fontSize=11;fontColor=default;endArrow=none;endFill=0;" edge="1" source="Bbe2E0BqDr3qgG-HRDM4-61" target="Bbe2E0BqDr3qgG-HRDM4-58" parent="1">
          <mxGeometry relative="1" as="geometry" />
        </mxCell>
        <mxCell id="Bbe2E0BqDr3qgG-HRDM4-73" style="edgeStyle=none;shape=connector;rounded=0;orthogonalLoop=1;jettySize=auto;html=1;exitX=0.5;exitY=0;exitDx=0;exitDy=0;entryX=0.438;entryY=0.964;entryDx=0;entryDy=0;entryPerimeter=0;labelBackgroundColor=default;strokeColor=default;align=center;verticalAlign=middle;fontFamily=Helvetica;fontSize=11;fontColor=default;endArrow=none;endFill=0;" edge="1" source="Bbe2E0BqDr3qgG-HRDM4-68" target="Bbe2E0BqDr3qgG-HRDM4-58" parent="1">
          <mxGeometry relative="1" as="geometry" />
        </mxCell>
        <mxCell id="Bbe2E0BqDr3qgG-HRDM4-74" style="edgeStyle=none;shape=connector;rounded=0;orthogonalLoop=1;jettySize=auto;html=1;exitX=0.5;exitY=1;exitDx=0;exitDy=0;entryX=0.598;entryY=1.044;entryDx=0;entryDy=0;entryPerimeter=0;labelBackgroundColor=default;strokeColor=default;align=center;verticalAlign=middle;fontFamily=Helvetica;fontSize=11;fontColor=default;endArrow=none;endFill=0;" edge="1" source="Bbe2E0BqDr3qgG-HRDM4-65" target="Bbe2E0BqDr3qgG-HRDM4-58" parent="1">
          <mxGeometry relative="1" as="geometry" />
        </mxCell>
        <mxCell id="Bbe2E0BqDr3qgG-HRDM4-77" value="" style="edgeStyle=none;shape=connector;rounded=0;orthogonalLoop=1;jettySize=auto;html=1;labelBackgroundColor=default;strokeColor=default;align=center;verticalAlign=middle;fontFamily=Helvetica;fontSize=11;fontColor=default;endArrow=none;endFill=0;" edge="1" source="Bbe2E0BqDr3qgG-HRDM4-79" target="Bbe2E0BqDr3qgG-HRDM4-83" parent="1">
          <mxGeometry relative="1" as="geometry" />
        </mxCell>
        <mxCell id="Bbe2E0BqDr3qgG-HRDM4-79" value="借阅记录" style="whiteSpace=wrap;html=1;align=center;fontFamily=Helvetica;fontSize=11;fontColor=default;" vertex="1" parent="1">
          <mxGeometry x="660" y="1100" width="100" height="40" as="geometry" />
        </mxCell>
        <mxCell id="Bbe2E0BqDr3qgG-HRDM4-80" value="" style="edgeStyle=none;shape=connector;rounded=0;orthogonalLoop=1;jettySize=auto;html=1;labelBackgroundColor=default;strokeColor=default;align=center;verticalAlign=middle;fontFamily=Helvetica;fontSize=11;fontColor=default;endArrow=none;endFill=0;" edge="1" source="Bbe2E0BqDr3qgG-HRDM4-81" target="Bbe2E0BqDr3qgG-HRDM4-79" parent="1">
          <mxGeometry relative="1" as="geometry" />
        </mxCell>
        <mxCell id="Bbe2E0BqDr3qgG-HRDM4-81" value="读者id" style="ellipse;whiteSpace=wrap;html=1;align=center;fontFamily=Helvetica;fontSize=11;fontColor=default;" vertex="1" parent="1">
          <mxGeometry x="530" y="1060" width="100" height="40" as="geometry" />
        </mxCell>
        <mxCell id="Bbe2E0BqDr3qgG-HRDM4-82" value="isbn" style="ellipse;whiteSpace=wrap;html=1;align=center;fontFamily=Helvetica;fontSize=11;fontColor=default;" vertex="1" parent="1">
          <mxGeometry x="600" y="1000" width="100" height="40" as="geometry" />
        </mxCell>
        <mxCell id="Bbe2E0BqDr3qgG-HRDM4-83" value="书名" style="ellipse;whiteSpace=wrap;html=1;align=center;fontFamily=Helvetica;fontSize=11;fontColor=default;" vertex="1" parent="1">
          <mxGeometry x="730" y="980" width="100" height="40" as="geometry" />
        </mxCell>
        <mxCell id="Bbe2E0BqDr3qgG-HRDM4-84" style="edgeStyle=none;shape=connector;rounded=0;orthogonalLoop=1;jettySize=auto;html=1;exitX=0.5;exitY=1;exitDx=0;exitDy=0;labelBackgroundColor=default;strokeColor=default;align=center;verticalAlign=middle;fontFamily=Helvetica;fontSize=11;fontColor=default;endArrow=none;endFill=0;" edge="1" source="Bbe2E0BqDr3qgG-HRDM4-85" target="Bbe2E0BqDr3qgG-HRDM4-79" parent="1">
          <mxGeometry relative="1" as="geometry" />
        </mxCell>
        <mxCell id="Bbe2E0BqDr3qgG-HRDM4-85" value="借出的时间" style="ellipse;whiteSpace=wrap;html=1;align=center;fontFamily=Helvetica;fontSize=11;fontColor=default;" vertex="1" parent="1">
          <mxGeometry x="850" y="1040" width="100" height="40" as="geometry" />
        </mxCell>
        <mxCell id="Bbe2E0BqDr3qgG-HRDM4-86" value="归还的时间" style="ellipse;whiteSpace=wrap;html=1;align=center;fontFamily=Helvetica;fontSize=11;fontColor=default;" vertex="1" parent="1">
          <mxGeometry x="840" y="1100" width="100" height="40" as="geometry" />
        </mxCell>
        <mxCell id="Bbe2E0BqDr3qgG-HRDM4-87" style="edgeStyle=none;shape=connector;rounded=0;orthogonalLoop=1;jettySize=auto;html=1;exitX=0.5;exitY=0;exitDx=0;exitDy=0;entryX=0.5;entryY=1;entryDx=0;entryDy=0;labelBackgroundColor=default;strokeColor=default;align=center;verticalAlign=middle;fontFamily=Helvetica;fontSize=11;fontColor=default;endArrow=none;endFill=0;" edge="1" source="Bbe2E0BqDr3qgG-HRDM4-88" target="Bbe2E0BqDr3qgG-HRDM4-79" parent="1">
          <mxGeometry relative="1" as="geometry" />
        </mxCell>
        <mxCell id="Bbe2E0BqDr3qgG-HRDM4-88" value="状态" style="ellipse;whiteSpace=wrap;html=1;align=center;fontFamily=Helvetica;fontSize=11;fontColor=default;" vertex="1" parent="1">
          <mxGeometry x="800" y="1170" width="100" height="40" as="geometry" />
        </mxCell>
        <mxCell id="Bbe2E0BqDr3qgG-HRDM4-89" value="借出数量" style="ellipse;whiteSpace=wrap;html=1;align=center;fontFamily=Helvetica;fontSize=11;fontColor=default;" vertex="1" parent="1">
          <mxGeometry x="640" y="1200" width="100" height="40" as="geometry" />
        </mxCell>
        <mxCell id="Bbe2E0BqDr3qgG-HRDM4-90" value="" style="edgeStyle=none;shape=connector;rounded=0;orthogonalLoop=1;jettySize=auto;html=1;labelBackgroundColor=default;strokeColor=default;align=center;verticalAlign=middle;fontFamily=Helvetica;fontSize=11;fontColor=default;endArrow=none;endFill=0;" edge="1" source="Bbe2E0BqDr3qgG-HRDM4-91" target="Bbe2E0BqDr3qgG-HRDM4-79" parent="1">
          <mxGeometry relative="1" as="geometry" />
        </mxCell>
        <mxCell id="Bbe2E0BqDr3qgG-HRDM4-91" value="状态" style="ellipse;whiteSpace=wrap;html=1;align=center;fontFamily=Helvetica;fontSize=11;fontColor=default;" vertex="1" parent="1">
          <mxGeometry x="540" y="1140" width="100" height="40" as="geometry" />
        </mxCell>
        <mxCell id="Bbe2E0BqDr3qgG-HRDM4-93" style="edgeStyle=none;shape=connector;rounded=0;orthogonalLoop=1;jettySize=auto;html=1;entryX=0.4;entryY=0;entryDx=0;entryDy=0;entryPerimeter=0;labelBackgroundColor=default;strokeColor=default;align=center;verticalAlign=middle;fontFamily=Helvetica;fontSize=11;fontColor=default;endArrow=none;endFill=0;" edge="1" source="Bbe2E0BqDr3qgG-HRDM4-82" target="Bbe2E0BqDr3qgG-HRDM4-79" parent="1">
          <mxGeometry relative="1" as="geometry" />
        </mxCell>
        <mxCell id="Bbe2E0BqDr3qgG-HRDM4-94" style="edgeStyle=none;shape=connector;rounded=0;orthogonalLoop=1;jettySize=auto;html=1;exitX=0.5;exitY=0;exitDx=0;exitDy=0;entryX=0.438;entryY=0.964;entryDx=0;entryDy=0;entryPerimeter=0;labelBackgroundColor=default;strokeColor=default;align=center;verticalAlign=middle;fontFamily=Helvetica;fontSize=11;fontColor=default;endArrow=none;endFill=0;" edge="1" source="Bbe2E0BqDr3qgG-HRDM4-89" target="Bbe2E0BqDr3qgG-HRDM4-79" parent="1">
          <mxGeometry relative="1" as="geometry" />
        </mxCell>
        <mxCell id="Bbe2E0BqDr3qgG-HRDM4-95" style="edgeStyle=none;shape=connector;rounded=0;orthogonalLoop=1;jettySize=auto;html=1;exitX=0.5;exitY=1;exitDx=0;exitDy=0;entryX=0.598;entryY=1.044;entryDx=0;entryDy=0;entryPerimeter=0;labelBackgroundColor=default;strokeColor=default;align=center;verticalAlign=middle;fontFamily=Helvetica;fontSize=11;fontColor=default;endArrow=none;endFill=0;" edge="1" source="Bbe2E0BqDr3qgG-HRDM4-86" target="Bbe2E0BqDr3qgG-HRDM4-79" parent="1">
          <mxGeometry relative="1" as="geometry" />
        </mxCell>
      </root>
    </mxGraphModel>
  </diagram>
</mxfile>
